<?xml version="1.0" encoding="UTF-8"?>
<svg version="1.1" xmlns="http://www.w3.org/2000/svg" width="512" height="512">
<path d="M0 0 C153.12 0 306.24 0 464 0 C464 95.04 464 190.08 464 288 C453.77 288.33 443.54 288.66 433 289 C436.3 291.97 439.6 294.94 443 298 C445.91408601 302.76204299 447.44100887 306.41008874 448 312 C448.94875 312.103125 449.8975 312.20625 450.875 312.3125 C454 313 454 313 456 316 C456.67065868 323.04191617 456.67065868 323.04191617 454.25 326.5 C452 328 452 328 448 328 C448.0314209 328.94129761 448.0314209 328.94129761 448.06347656 329.90161133 C448.47461848 344.18619085 447.82280574 357.20898735 444 371 C443.67257812 372.24394531 443.34515625 373.48789062 443.0078125 374.76953125 C437.42355051 393.58074954 426.57558616 414.41280984 411.25 427.0625 C408.38767861 429.67695026 408.02558632 430.78707729 407.55078125 434.73828125 C407.50040143 437.45846869 407.64040347 440.08070597 407.81640625 442.8046875 C408 446 408 446 407 448 C407.7553302 447.99111755 408.5106604 447.98223511 409.28887939 447.9730835 C416.41021087 447.89290611 423.53132325 447.83202015 430.65298843 447.79275131 C434.31426511 447.7718839 437.97516858 447.74358294 441.63623047 447.69824219 C445.16998711 447.65475237 448.70338499 447.63085652 452.23738861 447.62049103 C454.24051252 447.60951263 456.24349226 447.57829124 458.24639893 447.54681396 C459.46736267 447.54651184 460.68832642 447.54620972 461.94628906 447.54589844 C463.02106506 447.53701599 464.09584106 447.52813354 465.20318604 447.51898193 C468.67984113 448.11692443 469.84325515 449.26749743 472 452 C472.53125 454 472.53125 454 472.5 456 C472.5103125 456.66 472.520625 457.32 472.53125 458 C471.73278915 461.00597025 470.45432011 462.09606309 468 464 C465.24853809 464.39207261 462.89762761 464.53790488 460.14758301 464.50336456 C458.94708895 464.51208521 458.94708895 464.51208521 457.72234249 464.52098203 C455.02357769 464.53565335 452.32571225 464.52166387 449.62695312 464.50793457 C447.67944115 464.51254067 445.73193265 464.51889162 443.78443146 464.52684355 C438.4195545 464.54359995 433.05496077 464.53526187 427.69008255 464.52289867 C421.90949802 464.51387626 416.1289634 464.52780392 410.34838867 464.53881836 C399.01901483 464.55663826 387.68974678 464.55274815 376.36036873 464.5411678 C367.15568292 464.53214738 357.95102684 464.53090343 348.74633789 464.53526306 C347.43806424 464.53587599 346.12979058 464.53648893 344.78187227 464.53712043 C342.12443732 464.53839929 339.46700238 464.53969614 336.80956745 464.5410108 C312.58127352 464.55250327 288.35303314 464.54058499 264.12474835 464.51964041 C241.99719711 464.50065732 219.86973794 464.50235581 197.7421875 464.52148438 C172.89385292 464.54289306 148.04557 464.55132803 123.19722748 464.53903532 C120.54937236 464.53776108 117.90151724 464.53650359 115.25366211 464.53526306 C113.29928624 464.53433741 113.29928624 464.53433741 111.30542803 464.53339306 C102.1079844 464.52993417 92.91057335 464.53578009 83.71313477 464.54518127 C72.50998524 464.55638049 61.30694788 464.55340502 50.10381126 464.5320583 C44.38387247 464.5215199 38.66412091 464.51747348 32.94418335 464.53065491 C27.71347333 464.54252693 22.48312504 464.53610231 17.25244808 464.5147447 C15.3548007 464.51025654 13.4571231 464.51259412 11.55949497 464.52224785 C8.99002769 464.53432213 6.42181739 464.52202924 3.85241699 464.50336456 C2.73401759 464.51741156 2.73401759 464.51741156 1.59302425 464.53174233 C-1.87291597 464.4810392 -3.68147485 464.24709563 -6.45757294 462.09353971 C-8.13039059 459.82302056 -8.54351767 458.78513085 -8.5 456 C-8.5103125 455.34 -8.520625 454.68 -8.53125 454 C-7.75331112 451.07128894 -6.32830735 449.90368015 -4 448 C-1.31707764 447.51898193 -1.31707764 447.51898193 1.77832031 447.54589844 C2.9392218 447.54620056 4.10012329 447.54650269 5.29620361 447.54681396 C6.54423767 447.56745911 7.79227173 447.58810425 9.078125 447.609375 C11.00069122 447.61786469 11.00069122 447.61786469 12.96209717 447.62652588 C16.36213628 447.64176532 19.76148694 447.68103084 23.16125488 447.7253418 C26.63345019 447.76633201 30.10575724 447.78454479 33.578125 447.8046875 C40.38569866 447.847528 47.19281624 447.91575788 54 448 C53.852994 446.07346085 53.852994 446.07346085 53.70301819 444.10800171 C52.77586013 431.95685147 51.8490592 419.80567404 50.92260075 407.65447044 C50.44638053 401.40863082 49.97003799 395.16280057 49.4934082 388.91699219 C49.03275497 382.8804813 48.57243311 376.84394522 48.1123333 370.80739212 C47.93743941 368.51351664 47.76242958 366.21965 47.58729744 363.92579269 C46.69866745 352.28566173 45.8115528 340.64581087 45 329 C43.53191895 328.98598145 43.53191895 328.98598145 42.03417969 328.97167969 C38.39586209 328.93174542 34.75838709 328.86597866 31.12060547 328.79248047 C29.54747356 328.76429046 27.97420053 328.74306602 26.40087891 328.72900391 C24.13631044 328.70754558 21.87343496 328.66088652 19.609375 328.609375 C18.90818542 328.60814636 18.20699585 328.60691772 17.48455811 328.60565186 C14.06708947 328.50360831 12.28268447 328.22142298 9.55761719 326.08691406 C7.86508874 323.81924429 7.45635159 322.79349856 7.5 320 C7.4896875 319.34 7.479375 318.68 7.46875 318 C8.26283415 315.01050671 9.57057004 313.89997639 12 312 C15.39160156 311.54589844 15.39160156 311.54589844 19.390625 311.609375 C20.09523865 311.61503479 20.79985229 311.62069458 21.52581787 311.62652588 C23.76791428 311.64884922 26.00838988 311.69903246 28.25 311.75 C29.77341435 311.77007048 31.29685386 311.7883203 32.8203125 311.8046875 C36.54799586 311.84529407 40.27219242 311.9235757 44 312 C43.34 304.41 42.68 296.82 42 289 C28.14 288.67 14.28 288.34 0 288 C0 192.96 0 97.92 0 0 Z M178 329 C177.8081881 330.37601226 177.67902693 331.76083761 177.57603455 333.14633179 C177.4730027 334.4876416 177.4730027 334.4876416 177.3678894 335.85604858 C177.29667877 336.84505157 177.22546814 337.83405457 177.15209961 338.85302734 C177.07392502 339.88888977 176.99575043 340.9247522 176.91520691 341.99200439 C176.65629814 345.43965451 176.40415188 348.88776202 176.15234375 352.3359375 C175.97469663 354.72956427 175.79676007 357.12316957 175.61854553 359.51675415 C175.24492959 364.54887879 174.87460437 369.58123208 174.5065918 374.61376953 C174.03612196 381.04429978 173.55799379 387.47423213 173.07739925 393.90401268 C172.70808731 398.85566472 172.34271366 403.80760141 171.97851753 408.75963211 C171.80385584 411.12863345 171.62803253 413.49754946 171.45100212 415.86637497 C171.2028798 419.19498238 170.96002878 422.5239354 170.71850586 425.85302734 C170.645271 426.82178802 170.57203613 427.79054871 170.49658203 428.78866577 C170.03568386 435.24300188 170 441.492371 170 448 C202.67 448 235.34 448 269 448 C265.88009983 444.88009983 263.17707845 442.62605249 259.625 440.125 C234.45201257 421.62097566 217.36409494 393.48264614 211 363 C210.82178711 362.17072998 210.64357422 361.34145996 210.45996094 360.48706055 C209.04777954 353.42678966 208.58626474 346.49990236 208.375 339.3125 C208.31699219 337.66991211 208.31699219 337.66991211 208.2578125 335.99414062 C208.16472748 333.329582 208.07890148 330.66500978 208 328 C203.8882744 327.97534254 199.77657722 327.95716041 195.66479492 327.94506836 C194.26504772 327.9400292 192.8653058 327.93319784 191.46557617 327.92456055 C189.45754223 327.9124768 187.44947043 327.90730193 185.44140625 327.90234375 C184.23170166 327.89710693 183.02199707 327.89187012 181.77563477 327.88647461 C179.09187983 327.68224715 179.09187983 327.68224715 178 329 Z " fill="#9AA3A8" transform="translate(24,24)"/>
<path d="M0 0 C4.71596634 3.21543159 7.37708182 6.09646714 8.5625 11.75 C8.624375 12.78125 8.68625 13.8125 8.75 14.875 C10.2659375 14.936875 10.2659375 14.936875 11.8125 15 C16.54897939 15.66426235 19.63899472 18.36998878 22.75 21.875 C24.54578123 24.78499533 25.02331547 26.9709419 25 30.375 C25.00773437 31.50421875 25.00773437 31.50421875 25.015625 32.65625 C24.72250404 35.1046721 23.96816769 36.74804054 22.75 38.875 C23.575 38.7925 24.4 38.71 25.25 38.625 C31.08596373 39.04185455 35.78717963 41.59319099 39.75 45.875 C42.28446685 44.70524607 44.43691721 43.40274442 46.75 41.8125 C51.58278081 38.69132906 56.03527168 38.21780624 61.75 38.875 C69.02204207 40.5153888 73.78517327 43.09033185 78.5078125 48.875 C79.76390768 50.89739223 80.32372978 52.54610907 80.75 54.875 C81.67941406 54.82859375 82.60882813 54.7821875 83.56640625 54.734375 C96.22498238 54.36478154 96.22498238 54.36478154 101.75 58.875 C106.9141088 63.76324828 110.5857691 69.05968902 112.75 75.875 C112.75 76.865 112.75 77.855 112.75 78.875 C113.69875 78.978125 114.6475 79.08125 115.625 79.1875 C118.75 79.875 118.75 79.875 120.75 82.875 C121.42065868 89.91691617 121.42065868 89.91691617 119 93.375 C116.75 94.875 116.75 94.875 112.75 94.875 C112.77094727 95.50253174 112.79189453 96.13006348 112.81347656 96.77661133 C113.22461848 111.06119085 112.57280574 124.08398735 108.75 137.875 C108.42257812 139.11894531 108.09515625 140.36289062 107.7578125 141.64453125 C102.17355051 160.45574954 91.32558616 181.28780984 76 193.9375 C73.13767861 196.55195026 72.77558632 197.66207729 72.30078125 201.61328125 C72.25040143 204.33346869 72.39040347 206.95570597 72.56640625 209.6796875 C72.75 212.875 72.75 212.875 71.75 214.875 C72.5053302 214.86611755 73.2606604 214.85723511 74.03887939 214.8480835 C81.16021087 214.76790611 88.28132325 214.70702015 95.40298843 214.66775131 C99.06426511 214.6468839 102.72516858 214.61858294 106.38623047 214.57324219 C109.91998711 214.52975237 113.45338499 214.50585652 116.98738861 214.49549103 C118.99051252 214.48451263 120.99349226 214.45329124 122.99639893 214.42181396 C124.21736267 214.42151184 125.43832642 214.42120972 126.69628906 214.42089844 C127.77106506 214.41201599 128.84584106 214.40313354 129.95318604 214.39398193 C133.42984113 214.99192443 134.59325515 216.14249743 136.75 218.875 C137.28125 220.875 137.28125 220.875 137.25 222.875 C137.26546875 223.865 137.26546875 223.865 137.28125 224.875 C136.49989351 227.81657738 135.09907506 228.97088414 132.75 230.875 C129.9186306 231.37836456 129.9186306 231.37836456 126.58163452 231.38293457 C124.6813575 231.39985352 124.6813575 231.39985352 122.74269104 231.41711426 C121.34066544 231.40933661 119.9386421 231.40114391 118.53662109 231.39257812 C117.0578594 231.39799963 115.57910312 231.40512246 114.10035706 231.41381836 C110.08078415 231.43207379 106.06162149 231.42496934 102.0420413 231.41230202 C97.82103608 231.40215926 93.60006548 231.41157369 89.37905884 231.41784668 C82.27542857 231.42513056 75.17196441 231.41552772 68.06835938 231.39648438 C59.89784944 231.37483135 51.72774062 231.38167906 43.55724084 231.40379 C36.51911068 231.42206388 29.48109999 231.42444083 22.44295371 231.41403532 C18.25052136 231.40785053 14.05827594 231.40682191 9.86585617 231.42018127 C-29.04764929 231.52709394 -61.29423839 223.62540126 -89.8125 195.8125 C-112.57973885 172.79829646 -127.50736891 140.64949323 -127.5859375 108.01953125 C-127.5925943 107.03305099 -127.5992511 106.04657074 -127.60610962 105.03019714 C-127.61615247 102.96391646 -127.62092926 100.89760389 -127.62060547 98.83129883 C-127.62500417 95.68451813 -127.66148286 92.53911406 -127.69921875 89.39257812 C-127.70508377 87.37240057 -127.70905527 85.35221644 -127.7109375 83.33203125 C-127.72530853 82.40163528 -127.73967957 81.47123932 -127.75448608 80.51264954 C-127.70359017 73.19375837 -125.95316655 67.92150255 -121.06640625 62.4140625 C-120.32261719 61.78242188 -119.57882813 61.15078125 -118.8125 60.5 C-117.70068359 59.52933594 -117.70068359 59.52933594 -116.56640625 58.5390625 C-111.71088912 55.0509507 -107.87179433 54.63907861 -101.9375 54.75 C-100.05611328 54.77707031 -100.05611328 54.77707031 -98.13671875 54.8046875 C-97.18410156 54.82789063 -96.23148437 54.85109375 -95.25 54.875 C-94.98703125 53.95074219 -94.7240625 53.02648437 -94.453125 52.07421875 C-93.27007664 48.92838562 -92.55049904 47.73823909 -90 45.6875 C-89.43796875 45.21957031 -88.8759375 44.75164062 -88.296875 44.26953125 C-81.12271633 39.38179338 -74.77062019 38.80634439 -66.25 39.875 C-63.60462388 40.94956745 -61.45021593 42.1472223 -59.1171875 43.78125 C-57.0354177 45.21196101 -57.0354177 45.21196101 -53.25 44.875 C-51.30476586 43.87242392 -51.30476586 43.87242392 -49.4375 42.5 C-45.75042659 40.05809209 -42.5464133 38.85959471 -38.25 37.875 C-38.58 36.885 -38.91 35.895 -39.25 34.875 C-39.79225459 30.20805478 -39.7198456 26.79728952 -37.5625 22.5625 C-33.10030752 17.37670874 -30.18659554 15.41904671 -23.25 14.875 C-23.20875 13.864375 -23.1675 12.85375 -23.125 11.8125 C-22.46073765 7.07602061 -19.75501122 3.98600528 -16.25 0.875 C-11.1091332 -2.27417195 -5.56020282 -1.92468559 0 0 Z " fill="#EB423F" transform="translate(359.25,257.125)"/>
<path d="M0 0 C46.86 0 93.72 0 142 0 C142 10.68747969 141.01327025 21.36066235 140 32 C154.85 32 169.7 32 185 32 C184.01 32.66 183.02 33.32 182 34 C175.67577643 38.27348162 170.49736746 42.50789763 168 50 C167.85222064 51.69867188 167.75252934 53.40177489 167.68359375 55.10546875 C167.64548584 55.99129639 167.60737793 56.87712402 167.56811523 57.78979492 C167.52501221 58.9110376 167.48190918 60.03228027 167.4375 61.1875 C167.293125 64.755625 167.14875 68.32375 167 72 C157.43 72.33 147.86 72.66 138 73 C137.76289307 76.21403564 137.52578613 79.42807129 137.28149414 82.73950195 C136.4960479 93.38453772 135.70957403 104.02949738 134.92260075 114.67442036 C134.4457119 121.12544005 133.96916416 127.57648455 133.4934082 134.02758789 C133.03386456 140.25868351 132.57340888 146.48971114 132.1123333 152.72069359 C131.93699413 155.09237479 131.761978 157.4640799 131.58729744 159.83580971 C131.34169915 163.16965731 131.09492968 166.50341637 130.84790039 169.8371582 C130.77668976 170.80748993 130.70547913 171.77782166 130.6321106 172.77755737 C130.15522215 179.1916913 129.60081265 185.59630622 129 192 C130.24233398 191.98223511 131.48466797 191.96447021 132.76464844 191.94616699 C144.53236784 191.78325663 156.29985537 191.66371895 168.06845093 191.58550262 C174.11740499 191.54393687 180.16544121 191.4876512 186.21386719 191.39648438 C192.06246828 191.30889167 197.91019248 191.26158629 203.75939941 191.24098206 C205.97918483 191.22631888 208.19892792 191.19768761 210.41833496 191.15415955 C223.92374016 190.90007172 233.61526322 191.92474949 245.21421814 199.02987671 C253.77706231 203.68162883 264.47914292 205.64852241 274 207 C274 207.33 274 207.66 274 208 C233.4293954 208.09149841 192.85880421 208.16200966 152.2881171 208.20426132 C147.50148545 208.20926432 142.714854 208.21444159 137.92822266 208.21972656 C136.97526579 208.2207758 136.02230892 208.22182505 135.04047456 208.22290608 C119.59784683 208.24032488 104.1552785 208.27187067 88.71268603 208.30861118 C72.87441662 208.34597961 57.03617837 208.36822716 41.19786668 208.37635398 C31.41991136 208.38185027 21.6421239 208.39922749 11.86422023 208.43166587 C5.16474209 208.45276319 -1.53464892 208.45921093 -8.23415789 208.45400551 C-12.10302774 208.45143624 -15.97160371 208.45545327 -19.84042168 208.4768219 C-24.02997794 208.49979378 -28.21890373 208.49198134 -32.4085083 208.48101807 C-33.63806944 208.49266943 -34.86763058 208.5043208 -36.13445115 208.51632524 C-37.25361853 208.50836104 -38.37278592 208.50039685 -39.52586746 208.49219131 C-40.49339486 208.4937102 -41.46092227 208.49522908 -42.45776868 208.49679399 C-45.73705034 207.85596819 -46.92938757 206.56426744 -49 204 C-49.53125 202 -49.53125 202 -49.5 200 C-49.51546875 199.01 -49.51546875 199.01 -49.53125 198 C-48.75331112 195.07128894 -47.32830735 193.90368015 -45 192 C-42.31707764 191.51898193 -42.31707764 191.51898193 -39.22167969 191.54589844 C-38.0607782 191.54620056 -36.89987671 191.54650269 -35.70379639 191.54681396 C-34.45576233 191.56745911 -33.20772827 191.58810425 -31.921875 191.609375 C-30.64016418 191.61503479 -29.35845337 191.62069458 -28.03790283 191.62652588 C-24.63786372 191.64176532 -21.23851306 191.68103084 -17.83874512 191.7253418 C-14.36654981 191.76633201 -10.89424276 191.78454479 -7.421875 191.8046875 C-0.61430134 191.847528 6.19281624 191.91575788 13 192 C12.901996 190.71564056 12.803992 189.43128113 12.70301819 188.10800171 C11.77586013 175.95685147 10.8490592 163.80567404 9.92260075 151.65447044 C9.44638053 145.40863082 8.97003799 139.16280057 8.4934082 132.91699219 C8.03275497 126.8804813 7.57243311 120.84394522 7.1123333 114.80739212 C6.93743941 112.51351664 6.76242958 110.21965 6.58729744 107.92579269 C5.69866745 96.28566173 4.8115528 84.64581087 4 73 C3.0212793 72.9906543 2.04255859 72.98130859 1.03417969 72.97167969 C-2.60413791 72.93174542 -6.24161291 72.86597866 -9.87939453 72.79248047 C-11.45252644 72.76429046 -13.02579947 72.74306602 -14.59912109 72.72900391 C-16.86368956 72.70754558 -19.12656504 72.66088652 -21.390625 72.609375 C-22.09181458 72.60814636 -22.79300415 72.60691772 -23.51544189 72.60565186 C-26.93291053 72.50360831 -28.71731553 72.22142298 -31.44238281 70.08691406 C-33.13491126 67.81924429 -33.54364841 66.79349856 -33.5 64 C-33.5103125 63.34 -33.520625 62.68 -33.53125 62 C-32.73716585 59.01050671 -31.42942996 57.89997639 -29 56 C-25.60839844 55.54589844 -25.60839844 55.54589844 -21.609375 55.609375 C-20.55245453 55.61786469 -20.55245453 55.61786469 -19.47418213 55.62652588 C-17.23208572 55.64884922 -14.99161012 55.69903246 -12.75 55.75 C-11.22658565 55.77007048 -9.70314614 55.7883203 -8.1796875 55.8046875 C-4.4526017 55.84869882 -0.72645913 55.91769628 3 56 C2.90912109 54.98800537 2.90912109 54.98800537 2.81640625 53.95556641 C2.5397427 50.8457617 2.26983578 47.7354043 2 44.625 C1.90460938 43.56410156 1.80921875 42.50320313 1.7109375 41.41015625 C1.21408807 35.62540927 0.93073326 29.92748261 0.99609375 24.12207031 C1.00228701 20.75758438 0.60439525 17.46580888 0.21875 14.12890625 C-0.10975052 9.43017557 0 4.71019985 0 0 Z " fill="#2D84CB" transform="translate(65,280)"/>
<path d="M0 0 C4.39040062 3.27876778 8.20330168 7.06333124 12 11 C12.66386719 11.63292969 13.32773437 12.26585938 14.01171875 12.91796875 C25.36519652 24.47555399 31.30895328 42.67307756 31.4375 58.5 C31.14202197 79.47477857 23.62297911 96.94927508 9.3125 112.1875 C0.01657252 121.12862109 -10.726863 126.35641245 -23 130 C-24.2065625 130.36931641 -24.2065625 130.36931641 -25.4375 130.74609375 C-44.37633194 135.51368165 -63.56089921 130.79204519 -80.11767578 121.20654297 C-85.37382584 117.83742577 -89.68684076 113.47216971 -94 109 C-94.66386719 108.36707031 -95.32773438 107.73414063 -96.01171875 107.08203125 C-108.05823933 94.81894401 -113.30936814 76.16246741 -113.5 59.4375 C-113.28454321 40.5614656 -106.04593905 22.85999778 -92.63671875 9.54296875 C-91.76660156 8.70378906 -90.89648438 7.86460938 -90 7 C-89.36707031 6.33613281 -88.73414063 5.67226562 -88.08203125 4.98828125 C-64.75527132 -17.92652707 -26.11787414 -16.88573182 0 0 Z " fill="#E8EDF1" transform="translate(297,92)"/>
<path d="M0 0 C4.71596634 3.21543159 7.37708182 6.09646714 8.5625 11.75 C8.624375 12.78125 8.68625 13.8125 8.75 14.875 C10.2659375 14.936875 10.2659375 14.936875 11.8125 15 C16.54897939 15.66426235 19.63899472 18.36998878 22.75 21.875 C24.54578123 24.78499533 25.02331547 26.9709419 25 30.375 C25.00773437 31.50421875 25.00773437 31.50421875 25.015625 32.65625 C24.72250404 35.1046721 23.96816769 36.74804054 22.75 38.875 C23.575 38.7925 24.4 38.71 25.25 38.625 C31.08596373 39.04185455 35.78717963 41.59319099 39.75 45.875 C42.28446685 44.70524607 44.43691721 43.40274442 46.75 41.8125 C51.58278081 38.69132906 56.03527168 38.21780624 61.75 38.875 C69.02204207 40.5153888 73.78517327 43.09033185 78.5078125 48.875 C79.76390768 50.89739223 80.32372978 52.54610907 80.75 54.875 C81.67941406 54.82859375 82.60882813 54.7821875 83.56640625 54.734375 C96.22498238 54.36478154 96.22498238 54.36478154 101.75 58.875 C106.9141088 63.76324828 110.5857691 69.05968902 112.75 75.875 C112.75 76.865 112.75 77.855 112.75 78.875 C113.69875 78.978125 114.6475 79.08125 115.625 79.1875 C118.75 79.875 118.75 79.875 120.75 82.875 C121.42065868 89.91691617 121.42065868 89.91691617 119 93.375 C116.75 94.875 116.75 94.875 112.75 94.875 C112.75 97.515 112.75 100.155 112.75 102.875 C33.55 102.875 -45.65 102.875 -127.25 102.875 C-127.25 69.38305009 -127.25 69.38305009 -121.06640625 62.4140625 C-120.32261719 61.78242188 -119.57882813 61.15078125 -118.8125 60.5 C-117.70068359 59.52933594 -117.70068359 59.52933594 -116.56640625 58.5390625 C-111.71088912 55.0509507 -107.87179433 54.63907861 -101.9375 54.75 C-100.05611328 54.77707031 -100.05611328 54.77707031 -98.13671875 54.8046875 C-97.18410156 54.82789063 -96.23148437 54.85109375 -95.25 54.875 C-94.98703125 53.95074219 -94.7240625 53.02648437 -94.453125 52.07421875 C-93.27007664 48.92838562 -92.55049904 47.73823909 -90 45.6875 C-89.43796875 45.21957031 -88.8759375 44.75164062 -88.296875 44.26953125 C-81.12271633 39.38179338 -74.77062019 38.80634439 -66.25 39.875 C-63.60462388 40.94956745 -61.45021593 42.1472223 -59.1171875 43.78125 C-57.0354177 45.21196101 -57.0354177 45.21196101 -53.25 44.875 C-51.30476586 43.87242392 -51.30476586 43.87242392 -49.4375 42.5 C-45.75042659 40.05809209 -42.5464133 38.85959471 -38.25 37.875 C-38.58 36.885 -38.91 35.895 -39.25 34.875 C-39.79225459 30.20805478 -39.7198456 26.79728952 -37.5625 22.5625 C-33.10030752 17.37670874 -30.18659554 15.41904671 -23.25 14.875 C-23.20875 13.864375 -23.1675 12.85375 -23.125 11.8125 C-22.46073765 7.07602061 -19.75501122 3.98600528 -16.25 0.875 C-11.1091332 -2.27417195 -5.56020282 -1.92468559 0 0 Z " fill="#FED23A" transform="translate(359.25,257.125)"/>
<path d="M0 0 C1.06098372 0.00092179 2.12196745 0.00184359 3.2151022 0.00279331 C4.42811504 0.00141865 5.64112789 0.00004398 6.8908987 -0.00137234 C8.24737478 0.00216727 9.60385061 0.00580208 10.96032619 0.00952244 C12.37917485 0.00980431 13.79802365 0.00964658 15.21687222 0.00907993 C19.08033881 0.00879194 22.94377463 0.01468892 26.80723405 0.02165389 C30.84047653 0.02788716 34.87371965 0.02849121 38.90696621 0.0296793 C46.54970549 0.03279269 54.19243053 0.04100619 61.83516353 0.05102879 C70.53393099 0.06218967 79.23269911 0.06770031 87.93147194 0.07272422 C105.83033965 0.0831888 123.72919408 0.1007884 141.6280508 0.12304783 C142.11216557 1.56424575 142.59532444 3.0057648 143.07807827 4.44741917 C143.48182029 5.65148631 143.48182029 5.65148631 143.89371872 6.87987804 C144.69405938 9.32468474 145.38830648 11.77657333 146.01476955 14.27148533 C146.23068752 15.13129002 146.44660549 15.9910947 146.66906643 16.87695408 C146.88240627 17.74191502 147.09574612 18.60687595 147.3155508 19.49804783 C147.65296291 20.83029392 147.65296291 20.83029392 147.99719143 22.18945408 C148.20924221 23.04152439 148.42129299 23.8935947 148.63976955 24.77148533 C148.83014797 25.53638279 149.02052639 26.30128025 149.21667385 27.08935642 C149.6280508 29.12304783 149.6280508 29.12304783 149.6280508 32.12304783 C96.8280508 32.12304783 44.0280508 32.12304783 -10.3719492 32.12304783 C-9.04306413 24.81417999 -7.62909766 17.67944978 -5.8094492 10.49804783 C-5.58837498 9.60214939 -5.36730076 8.70625095 -5.13952732 7.78320408 C-4.92618748 6.93371189 -4.71284763 6.0842197 -4.49304295 5.20898533 C-4.3015366 4.44634373 -4.11003025 3.68370213 -3.91272068 2.89795017 C-3.09683143 0.22006538 -2.87027272 0.14889898 0 0 Z " fill="#D9DBDD" transform="translate(66.37194919586182,247.87695217132568)"/>
<path d="M0 0 C4.71596634 3.21543159 7.37708182 6.09646714 8.5625 11.75 C8.624375 12.78125 8.68625 13.8125 8.75 14.875 C9.35328125 14.97296875 9.9565625 15.0709375 10.578125 15.171875 C18.74976706 16.70076287 18.74976706 16.70076287 21.75 20.875 C21.75 21.535 21.75 22.195 21.75 22.875 C22.41 22.875 23.07 22.875 23.75 22.875 C25.11538938 25.60577876 24.88231826 27.83060367 24.875 30.875 C24.87886719 32.48375 24.87886719 32.48375 24.8828125 34.125 C24.75 36.875 24.75 36.875 23.75 38.875 C24.5053302 38.86611755 25.2606604 38.85723511 26.03887939 38.8480835 C33.16021087 38.76790611 40.28132325 38.70702015 47.40298843 38.66775131 C51.06426511 38.6468839 54.72516858 38.61858294 58.38623047 38.57324219 C61.91998711 38.52975237 65.45338499 38.50585652 68.98738861 38.49549103 C70.99051252 38.48451263 72.99349226 38.45329124 74.99639893 38.42181396 C76.21736267 38.42151184 77.43832642 38.42120972 78.69628906 38.42089844 C79.77106506 38.41201599 80.84584106 38.40313354 81.95318604 38.39398193 C85.42984113 38.99192443 86.59325515 40.14249743 88.75 42.875 C89.28125 44.875 89.28125 44.875 89.25 46.875 C89.26546875 47.865 89.26546875 47.865 89.28125 48.875 C88.50737832 51.78839926 87.05189598 52.96883954 84.75 54.875 C82.25878525 55.36719131 82.25878525 55.36719131 79.40960693 55.35601807 C77.78584137 55.36426605 77.78584137 55.36426605 76.12927246 55.37268066 C74.94675903 55.35829956 73.76424561 55.34391846 72.54589844 55.32910156 C71.2968573 55.32968567 70.04781616 55.33026978 68.76092529 55.33087158 C65.33940462 55.32856272 61.91885008 55.30850773 58.49750042 55.28057575 C54.92074621 55.25556545 51.34397904 55.25322041 47.76715088 55.24847412 C40.99562708 55.23604319 34.22436169 55.20322021 27.45295167 55.16307616 C19.7432477 55.11836193 12.03353136 55.09637233 4.32372999 55.07629442 C-11.53432964 55.0344875 -27.3921315 54.96413343 -43.25 54.875 C-43.25 54.545 -43.25 54.215 -43.25 53.875 C-41.73019531 53.58496094 -41.73019531 53.58496094 -40.1796875 53.2890625 C-38.82808432 53.02625077 -37.47652408 52.76321817 -36.125 52.5 C-35.45984375 52.37367188 -34.7946875 52.24734375 -34.109375 52.1171875 C-30.031339 51.3175726 -26.16146915 50.27630515 -22.25 48.875 C-22.90226562 48.66746094 -23.55453125 48.45992188 -24.2265625 48.24609375 C-30.44242991 46.05495465 -34.8160517 43.65315655 -38.25 37.875 C-39.50701228 33.94877645 -39.81735178 29.95678086 -39.25 25.875 C-36.999429 21.54056695 -34.39200933 18.47579655 -30.25 15.875 C-26.4375 15.125 -26.4375 15.125 -23.25 14.875 C-23.20875 13.864375 -23.1675 12.85375 -23.125 11.8125 C-22.46073765 7.07602061 -19.75501122 3.98600528 -16.25 0.875 C-11.1091332 -2.27417195 -5.56020282 -1.92468559 0 0 Z " fill="#FEE56B" transform="translate(407.25,433.125)"/>
<path d="M0 0 C4.71596634 3.21543159 7.37708182 6.09646714 8.5625 11.75 C8.624375 12.78125 8.68625 13.8125 8.75 14.875 C10.2659375 14.936875 10.2659375 14.936875 11.8125 15 C16.54897939 15.66426235 19.63899472 18.36998878 22.75 21.875 C25.3402771 26.10349871 25.28001927 30.04593556 24.75 34.875 C23.03098797 39.84103474 20.18726223 43.10917287 15.75 45.875 C13.73305098 46.72132763 11.70314122 47.43227637 9.62890625 48.125 C6.93487797 49.20037095 4.98472911 51.05193152 2.75 52.875 C-2.72929519 55.36558872 -8.75873374 56.10542891 -14.5 54.08203125 C-17.25814993 52.7587277 -19.59252659 51.57677755 -21.69921875 49.328125 C-23.60729888 47.54020105 -25.17797358 47.11883854 -27.6875 46.4375 C-31.59968939 45.24491323 -33.40128544 43.82194609 -36.25 40.875 C-39.39481791 40.07184346 -39.39481791 40.07184346 -42.25 39.875 C-40.93 39.215 -39.61 38.555 -38.25 37.875 C-38.745 36.39 -38.745 36.39 -39.25 34.875 C-39.79225459 30.20805478 -39.7198456 26.79728952 -37.5625 22.5625 C-33.10030752 17.37670874 -30.18659554 15.41904671 -23.25 14.875 C-23.20875 13.864375 -23.1675 12.85375 -23.125 11.8125 C-22.46073765 7.07602061 -19.75501122 3.98600528 -16.25 0.875 C-11.1091332 -2.27417195 -5.56020282 -1.92468559 0 0 Z " fill="#FEE66C" transform="translate(359.25,257.125)"/>
<path d="M0 0 C4.71596634 3.21543159 7.37708182 6.09646714 8.5625 11.75 C8.624375 12.78125 8.68625 13.8125 8.75 14.875 C10.2659375 14.936875 10.2659375 14.936875 11.8125 15 C16.54897939 15.66426235 19.63899472 18.36998878 22.75 21.875 C25.3402771 26.10349871 25.28001927 30.04593556 24.75 34.875 C23.03098797 39.84103474 20.18726223 43.10917287 15.75 45.875 C13.73434441 46.7207849 11.70531471 47.43153918 9.6328125 48.125 C6.92664367 49.20297597 4.96820523 51.01650372 2.75 52.875 C-1.91338466 55.53979124 -7.02720135 55.53380287 -12.25 54.875 C-15.86689684 53.63892246 -19.07501502 52.13526615 -21.703125 49.31640625 C-23.59808239 47.5506505 -25.0615981 47.22970858 -27.5625 46.625 C-32.64995112 45.06473767 -35.42163417 42.31957487 -38.25 37.875 C-39.60682449 33.80452653 -39.77472254 30.13108283 -39.25 25.875 C-37.03049397 21.51819186 -34.3954023 18.47792703 -30.25 15.875 C-26.4375 15.125 -26.4375 15.125 -23.25 14.875 C-23.20875 13.864375 -23.1675 12.85375 -23.125 11.8125 C-22.46073765 7.07602061 -19.75501122 3.98600528 -16.25 0.875 C-11.1091332 -2.27417195 -5.56020282 -1.92468559 0 0 Z " fill="#FDE66C" transform="translate(431.25,201.125)"/>
<path d="M0 0 C13.15295549 -0.1862044 26.30559215 -0.32793326 39.45960236 -0.41449738 C45.56908568 -0.45606592 51.67766049 -0.51235703 57.78662109 -0.60351562 C63.69357599 -0.69109791 69.5996628 -0.73841162 75.50721741 -0.75901794 C77.74933011 -0.77368293 79.99140082 -0.80231785 82.23313904 -0.84584045 C95.79609381 -1.09844134 105.57218935 -0.12145768 117.21774292 7.02987671 C125.77316919 11.6867909 136.48425145 13.64924756 146 15 C146 15.33 146 15.66 146 16 C97.49 16 48.98 16 -1 16 C-0.67 10.72 -0.34 5.44 0 0 Z " fill="#9AA2A7" transform="translate(193,472)"/>
<path d="M0 0 C2.7571445 0.96838364 5.31820042 2.24999604 7.91796875 3.578125 C8.65702957 3.94597107 9.39609039 4.31381714 10.157547 4.69281006 C11.7126949 5.47053301 13.26487838 6.25420885 14.81420898 7.04345703 C17.18260034 8.24750909 19.56185091 9.42761343 21.94335938 10.60546875 C23.4564345 11.36578547 24.96882878 12.12745893 26.48046875 12.890625 C27.18987106 13.24183411 27.89927338 13.59304321 28.63017273 13.95489502 C35.15622691 17.31164283 35.15622691 17.31164283 37 21 C37.56037355 23.58572365 37.97161703 26.02573516 38.28125 28.640625 C38.38000931 29.39200241 38.47876862 30.14337982 38.58052063 30.91752625 C38.89869994 33.36034297 39.19961818 35.80493669 39.5 38.25 C39.71473588 39.92924641 39.93047938 41.60836427 40.1472168 43.28735352 C40.57685697 46.63166002 40.99944064 49.97673453 41.41552734 53.32275391 C41.92398011 57.40876135 42.45215469 61.49175142 42.98828125 65.57421875 C43.26365599 67.69523013 43.53844888 69.81631719 43.8125 71.9375 C43.93625 72.8872168 44.06 73.83693359 44.1875 74.81542969 C44.29707031 75.68973633 44.40664062 76.56404297 44.51953125 77.46484375 C44.61339111 78.203396 44.70725098 78.94194824 44.80395508 79.70288086 C45.03920174 82.45933895 45 85.2335217 45 88 C39.72 88 34.44 88 29 88 C26.98250485 78.95898201 25.85245022 69.83409715 24.71289062 60.65014648 C24.3752726 57.93968848 24.02779734 55.23061244 23.6796875 52.52148438 C23.4603388 50.77351252 23.24156918 49.02546789 23.0234375 47.27734375 C22.86879532 46.08165016 22.86879532 46.08165016 22.71102905 44.86180115 C22.0616773 39.53741701 21.91247214 34.36425522 22 29 C21.12819092 28.72526855 20.25638184 28.45053711 19.3581543 28.16748047 C13.95171082 26.28790121 8.93113725 23.67058346 3.8125 21.125 C2.72001953 20.59519531 1.62753906 20.06539062 0.50195312 19.51953125 C-0.54412109 19.00003906 -1.59019531 18.48054688 -2.66796875 17.9453125 C-3.61953857 17.47625488 -4.5711084 17.00719727 -5.55151367 16.52392578 C-8.1285809 14.91997188 -9.44809665 13.59019532 -11 11 C-11.5 8.0625 -11.5 8.0625 -11 5 C-7.6261787 0.43541824 -5.56942044 -0.59881831 0 0 Z " fill="#2F85CB" transform="translate(99,160)"/>
<path d="M0 0 C14.85 0 29.7 0 45 0 C44.01 0.66 43.02 1.32 42 2 C35.67577643 6.27348162 30.49736746 10.50789763 28 18 C27.85222064 19.69867188 27.75252934 21.40177489 27.68359375 23.10546875 C27.64548584 23.99129639 27.60737793 24.87712402 27.56811523 25.78979492 C27.50346069 27.47165894 27.50346069 27.47165894 27.4375 29.1875 C27.293125 32.755625 27.14875 36.32375 27 40 C17.1 40 7.2 40 -3 40 C-2.87625 36.555625 -2.7525 33.11125 -2.625 29.5625 C-2.59100098 28.51650635 -2.55700195 27.4705127 -2.52197266 26.39282227 C-2.16494045 17.45490072 -1.05678243 8.98265066 0 0 Z " fill="#606669" transform="translate(205,312)"/>
<path d="M0 0 C1.37332853 -0.00082924 2.74665696 -0.00329069 4.11997986 -0.00730896 C6.99248269 -0.01016217 9.86420369 0.0044873 12.73657227 0.03198242 C16.41448742 0.06609848 20.09100819 0.06003285 23.76899052 0.04131985 C26.6026925 0.03074189 29.43607105 0.03969396 32.26974297 0.05470467 C34.28382442 0.06239057 36.29794508 0.05503885 38.31202698 0.04747009 C39.53687302 0.06330643 40.76171906 0.07914276 42.02368164 0.09545898 C43.63987144 0.10475685 43.63987144 0.10475685 45.28871155 0.11424255 C48.75057173 0.75030456 49.93421075 1.90299029 52.08984375 4.62890625 C52.62109375 6.62890625 52.62109375 6.62890625 52.58984375 8.62890625 C52.6053125 9.61890625 52.6053125 9.61890625 52.62109375 10.62890625 C51.81491706 13.66392439 50.59144123 14.72435515 48.08984375 16.62890625 C45.11872816 17.00285202 42.52470112 17.13578554 39.55761719 17.08300781 C38.26926971 17.08388397 38.26926971 17.08388397 36.95489502 17.08477783 C34.1192568 17.0819937 31.28467306 17.05088642 28.44921875 17.01953125 C26.48195978 17.01207003 24.51469338 17.00637653 22.54742432 17.00238037 C17.3719833 16.98711474 12.19699197 16.94782474 7.02172852 16.90356445 C1.73980798 16.8626319 -3.54218529 16.84437365 -8.82421875 16.82421875 C-19.18639539 16.78133154 -29.54823841 16.7130688 -39.91015625 16.62890625 C-36.91015625 14.62890625 -36.91015625 14.62890625 -33.91015625 13.19140625 C-30.98928531 11.88124893 -30.98928531 11.88124893 -29.49609375 10.1171875 C-27.09882463 7.86753347 -24.38746466 7.47357337 -21.26171875 6.66796875 C-18.68594145 5.77126164 -18.68594145 5.77126164 -17.13256836 3.10327148 C-12.76726013 -1.32909094 -5.74884524 -0.0578375 0 0 Z " fill="#9AA3A7" transform="translate(443.91015625,471.37109375)"/>
<path d="M0 0 C11.45775438 5.42735734 22.86939568 10.86313678 34.1875 16.5625 C35.44977179 17.19615881 36.71214162 17.82962235 37.97460938 18.46289062 C40.98403104 19.97336663 43.99248814 21.48572603 47 23 C47 23.66 47 24.32 47 25 C40.46859594 28.27833437 33.93565414 31.55358826 27.40161133 34.82666016 C25.17696799 35.94150299 22.95268344 37.05706208 20.72875977 38.17333984 C17.5401568 39.77367631 14.35029077 41.3714692 11.16015625 42.96875 C10.15912369 43.47184692 9.15809113 43.97494385 8.12672424 44.49328613 C7.20584518 44.95376343 6.28496613 45.41424072 5.33618164 45.88867188 C4.52121719 46.2972644 3.70625275 46.70585693 2.86659241 47.12683105 C1 48 1 48 0 48 C0 32.16 0 16.32 0 0 Z " fill="#EB4340" transform="translate(240,128)"/>
<path d="M0 0 C7.15010377 4.27070496 11.43850804 10.35633979 15.05859375 17.75390625 C16.31152241 24.57540674 16.4095214 31.3681673 13.62109375 37.81640625 C7.03437116 34.29341741 0.77150278 30.41004953 -5.4453125 26.2734375 C-6.36481186 25.66376633 -7.28431122 25.05409515 -8.23167419 24.4259491 C-10.15638502 23.14783657 -12.07987854 21.86788915 -14.00219727 20.58618164 C-16.95939638 18.61692628 -19.92383269 16.65889997 -22.88867188 14.70117188 C-24.76216894 13.45510369 -26.63523192 12.20838255 -28.5078125 10.9609375 C-29.39827774 10.37447952 -30.28874298 9.78802155 -31.20619202 9.18379211 C-32.01801437 8.63950058 -32.82983673 8.09520905 -33.66625977 7.53442383 C-34.38523941 7.05652908 -35.10421906 6.57863434 -35.84498596 6.08625793 C-36.35117966 5.66720688 -36.85737335 5.24815582 -37.37890625 4.81640625 C-37.37890625 4.15640625 -37.37890625 3.49640625 -37.37890625 2.81640625 C-35.6097515 1.83420998 -33.83852056 0.85575266 -32.06640625 -0.12109375 C-30.58720703 -0.93900391 -30.58720703 -0.93900391 -29.078125 -1.7734375 C-19.79158044 -6.62501867 -9.03478354 -4.49513861 0 0 Z " fill="#395B8E" transform="translate(152.37890625,332.18359375)"/>
<path d="M0 0 C3.48472634 1.29224328 6.46364844 2.80583489 9.55908203 4.85742188 C10.42993439 5.43141724 11.30078674 6.0054126 12.19802856 6.59680176 C13.12525726 7.21454468 14.05248596 7.8322876 15.0078125 8.46875 C16.45146683 9.42291809 16.45146683 9.42291809 17.92428589 10.3963623 C20.99401392 12.42668065 24.05953753 14.46324848 27.125 16.5 C29.19634112 17.87150685 31.26795269 19.24260533 33.33984375 20.61328125 C39.56553102 24.73370912 45.78813518 28.85875679 52 33 C52 33.66 52 34.32 52 35 C50.10807525 35.98669759 48.21128022 36.9640602 46.3125 37.9375 C44.72888672 38.75541016 44.72888672 38.75541016 43.11328125 39.58984375 C36.50005189 42.58529645 28.60154241 43.29256809 21.56640625 41.31640625 C11.84348297 37.25535857 5.53062842 31.55306848 1 22 C-1.67631754 15.29633924 -2.28410391 6.85231172 0 0 Z " fill="#395B8E" transform="translate(105,350)"/>
<path d="M0 0 C3.80616088 0.56592765 6.34664834 1.60434098 9.54321289 3.72802734 C10.41083755 4.29887054 11.27846222 4.86971375 12.17237854 5.45785522 C13.09647018 6.07762238 14.02056183 6.69738953 14.97265625 7.3359375 C15.93272079 7.97109283 16.89278534 8.60624817 17.88194275 9.26065063 C20.94714299 11.29132457 24.00474728 13.33313353 27.0625 15.375 C29.12518323 16.74289319 31.18832918 18.1100889 33.25195312 19.4765625 C37.03275336 21.98469364 40.81277242 24.49394351 44.58618164 27.01318359 C45.34387344 27.51868744 46.10156525 28.02419128 46.88221741 28.54501343 C48.96583336 29.97652639 50.98920119 31.46831703 53 33 C51.58832253 38.26170694 49.25149768 41.72171358 46 46 C42.19383912 45.43407235 39.65335166 44.39565902 36.45678711 42.27197266 C35.58916245 41.70112946 34.72153778 41.13028625 33.82762146 40.54214478 C32.44148399 39.61249405 32.44148399 39.61249405 31.02734375 38.6640625 C30.06727921 38.02890717 29.10721466 37.39375183 28.11805725 36.73934937 C25.05285701 34.70867543 21.99525272 32.66686647 18.9375 30.625 C16.87481677 29.25710681 14.81167082 27.8899111 12.74804688 26.5234375 C8.96724664 24.01530636 5.18722758 21.50605649 1.41381836 18.98681641 C0.65612656 18.48131256 -0.10156525 17.97580872 -0.88221741 17.45498657 C-2.96583336 16.02347361 -4.98920119 14.53168297 -7 13 C-5.58832253 7.73829306 -3.25149768 4.27828642 0 0 Z " fill="#D6D9DC" transform="translate(113,337)"/>
<path d="M0 0 C1.18092224 0.00030212 2.36184448 0.00060425 3.57855225 0.00091553 C4.84846008 0.02156067 6.11836792 0.04220581 7.42675781 0.06347656 C9.3826181 0.07196625 9.3826181 0.07196625 11.37799072 0.08062744 C14.83720804 0.09586818 18.29574887 0.13513494 21.75469971 0.17944336 C25.28721974 0.2204307 28.81984956 0.23864575 32.35253906 0.25878906 C39.2786255 0.30163205 46.20415199 0.37196828 53.12988281 0.45410156 C53.62488281 8.37410156 53.62488281 8.37410156 54.12988281 16.45410156 C46.37596841 16.54450595 38.62234245 16.61787647 30.86804581 16.66135025 C27.26729996 16.68221669 23.66693366 16.71051577 20.06640625 16.75585938 C16.59100368 16.79935281 13.11596594 16.82324578 9.64031219 16.83361053 C7.67042498 16.84458771 5.70068434 16.87580856 3.73101807 16.9072876 C1.92960358 16.90774078 1.92960358 16.90774078 0.09179688 16.90820312 C-1.49371979 16.92152679 -1.49371979 16.92152679 -3.11126709 16.93511963 C-6.56008586 16.33380239 -7.72538486 15.1619966 -9.87011719 12.45410156 C-10.40136719 10.45410156 -10.40136719 10.45410156 -10.37011719 8.45410156 C-10.38558594 7.46410156 -10.38558594 7.46410156 -10.40136719 6.45410156 C-8.9608681 1.03104616 -5.10106233 -0.04359882 0 0 Z " fill="#99A2A8" transform="translate(25.8701171875,471.5458984375)"/>
<path d="M0 0 C0.72680969 0.00565979 1.45361938 0.01131958 2.20245361 0.01715088 C4.51585745 0.03947947 6.8276922 0.08966452 9.140625 0.140625 C10.71221716 0.16069477 12.28383368 0.17894471 13.85546875 0.1953125 C17.70160638 0.23592641 21.54436713 0.31420928 25.390625 0.390625 C25.885625 8.310625 25.885625 8.310625 26.390625 16.390625 C21.62077794 16.48254925 16.85401213 16.56214999 12.08398438 16.61035156 C10.46213357 16.63044644 8.84035503 16.65772754 7.21875 16.69238281 C4.8852352 16.7409977 2.55267943 16.76361389 0.21875 16.78125 C-0.86584503 16.81221771 -0.86584503 16.81221771 -1.97235107 16.84381104 C-5.45883264 16.84535916 -7.26922998 16.6536795 -10.06542969 14.49121094 C-11.73729701 12.21658311 -12.15293012 11.17815278 -12.109375 8.390625 C-12.12484375 7.400625 -12.12484375 7.400625 -12.140625 6.390625 C-10.48172762 0.14536427 -5.5895477 -0.16457319 0 0 Z " fill="#697073" transform="translate(43.609375,335.609375)"/>
<path d="M0 0 C0.33 0 0.66 0 1 0 C1 2.31 1 4.62 1 7 C10.24 7 19.48 7 29 7 C29 12.28 29 17.56 29 23 C19.1 23 9.2 23 -1 23 C-0.67 15.41 -0.34 7.82 0 0 Z " fill="#697074" transform="translate(203,329)"/>
<path d="M0 0 C2.97 0.495 2.97 0.495 6 1 C8.45122505 4.67683758 8.70497355 7.72717253 8 12 C6.25 14.5 6.25 14.5 4 16 C2.68 16 1.36 16 0 16 C0 10.72 0 5.44 0 0 Z " fill="#6A7072" transform="translate(472,336)"/>
<path d="M0 0 C0 0.33 0 0.66 0 1 C-10.23 1 -20.46 1 -31 1 C-31 0.67 -31 0.34 -31 0 C-29.44539063 -0.30744141 -29.44539063 -0.30744141 -27.859375 -0.62109375 C-26.48957311 -0.89317769 -25.11978201 -1.16531596 -23.75 -1.4375 C-23.06808594 -1.57220703 -22.38617188 -1.70691406 -21.68359375 -1.84570312 C-18.99241139 -2.3813268 -16.31509644 -2.91741212 -13.66015625 -3.61328125 C-8.94015032 -4.71276499 -4.19210367 -1.89055656 0 0 Z " fill="#9DA2A4" transform="translate(395,487)"/>
</svg>
